<mxfile host="app.diagrams.net" modified="2024-01-15T00:00:00.000Z" agent="5.0" etag="xxx" version="22.1.16" type="device">
  <diagram name="AWS Landing Zone - Technical Architecture" id="technical-architecture">
    <mxGraphModel dx="2400" dy="1400" grid="1" gridSize="10" guides="1" tooltips="1" connect="1" arrows="1" fold="1" page="1" pageScale="1" pageWidth="2000" pageHeight="1200" math="0" shadow="0">
      <root>
        <mxCell id="0" />
        <mxCell id="1" parent="0" />

        <!-- AWS Cloud Region -->
        <mxCell id="region-dublin" value="" style="sketch=0;outlineConnect=0;gradientColor=none;html=1;whiteSpace=wrap;fontSize=12;fontStyle=0;shape=mxgraph.aws4.group;grIcon=mxgraph.aws4.group_region;strokeColor=#FF9900;fillColor=none;verticalAlign=top;align=left;spacingLeft=30;fontColor=#FF9900;dashed=0;" vertex="1" parent="1">
          <mxGeometry x="50" y="50" width="1900" height="1100" as="geometry" />
        </mxCell>

        <!-- Region Label -->
        <mxCell id="region-label" value="Europe (Dublin) - eu-west-1" style="text;html=1;strokeColor=none;fillColor=none;align=left;verticalAlign=top;whiteSpace=wrap;rounded=0;fontSize=16;fontStyle=1;fontColor=#FF9900;" vertex="1" parent="1">
          <mxGeometry x="80" y="60" width="200" height="30" as="geometry" />
        </mxCell>

        <!-- Availability Zones -->
        <mxCell id="az-a" value="" style="sketch=0;outlineConnect=0;gradientColor=none;html=1;whiteSpace=wrap;fontSize=12;fontStyle=0;shape=mxgraph.aws4.group;grIcon=mxgraph.aws4.group_availability_zone;strokeColor=#FF9900;fillColor=none;verticalAlign=top;align=left;spacingLeft=30;fontColor=#FF9900;dashed=1;" vertex="1" parent="1">
          <mxGeometry x="100" y="120" width="580" height="950" as="geometry" />
        </mxCell>
        <mxCell id="az-a-label" value="eu-west-1a" style="text;html=1;strokeColor=none;fillColor=none;align=left;verticalAlign=top;whiteSpace=wrap;rounded=0;fontSize=12;fontColor=#FF9900;" vertex="1" parent="1">
          <mxGeometry x="130" y="130" width="80" height="20" as="geometry" />
        </mxCell>

        <mxCell id="az-b" value="" style="sketch=0;outlineConnect=0;gradientColor=none;html=1;whiteSpace=wrap;fontSize=12;fontStyle=0;shape=mxgraph.aws4.group;grIcon=mxgraph.aws4.group_availability_zone;strokeColor=#FF9900;fillColor=none;verticalAlign=top;align=left;spacingLeft=30;fontColor=#FF9900;dashed=1;" vertex="1" parent="1">
          <mxGeometry x="710" y="120" width="580" height="950" as="geometry" />
        </mxCell>
        <mxCell id="az-b-label" value="eu-west-1b" style="text;html=1;strokeColor=none;fillColor=none;align=left;verticalAlign=top;whiteSpace=wrap;rounded=0;fontSize=12;fontColor=#FF9900;" vertex="1" parent="1">
          <mxGeometry x="740" y="130" width="80" height="20" as="geometry" />
        </mxCell>

        <mxCell id="az-c" value="" style="sketch=0;outlineConnect=0;gradientColor=none;html=1;whiteSpace=wrap;fontSize=12;fontStyle=0;shape=mxgraph.aws4.group;grIcon=mxgraph.aws4.group_availability_zone;strokeColor=#FF9900;fillColor=none;verticalAlign=top;align=left;spacingLeft=30;fontColor=#FF9900;dashed=1;" vertex="1" parent="1">
          <mxGeometry x="1320" y="120" width="580" height="950" as="geometry" />
        </mxCell>
        <mxCell id="az-c-label" value="eu-west-1c" style="text;html=1;strokeColor=none;fillColor=none;align=left;verticalAlign=top;whiteSpace=wrap;rounded=0;fontSize=12;fontColor=#FF9900;" vertex="1" parent="1">
          <mxGeometry x="1350" y="130" width="80" height="20" as="geometry" />
        </mxCell>

        <!-- Transit Gateway -->
        <mxCell id="transit-gateway" value="" style="sketch=0;points=[[0,0,0],[0.25,0,0],[0.5,0,0],[0.75,0,0],[1,0,0],[0,1,0],[0.25,1,0],[0.5,1,0],[0.75,1,0],[1,1,0],[0,0.25,0],[0,0.5,0],[0,0.75,0],[1,0.25,0],[1,0.5,0],[1,0.75,0]];outlineConnect=0;fontColor=#232F3E;gradientColor=#4AB29A;gradientDirection=north;fillColor=#116D5B;strokeColor=#ffffff;dashed=0;verticalLabelPosition=bottom;verticalAlign=top;align=center;html=1;fontSize=12;fontStyle=0;aspect=fixed;shape=mxgraph.aws4.resourceIcon;resIcon=mxgraph.aws4.transit_gateway;" vertex="1" parent="1">
          <mxGeometry x="950" y="220" width="100" height="100" as="geometry" />
        </mxCell>
        <mxCell id="tgw-label" value="Transit Gateway&#xa;10.0.0.0/8&#xa;ASN: 64512" style="text;html=1;strokeColor=none;fillColor=none;align=center;verticalAlign=middle;whiteSpace=wrap;rounded=0;fontSize=10;" vertex="1" parent="1">
          <mxGeometry x="920" y="330" width="160" height="40" as="geometry" />
        </mxCell>

        <!-- Network Account VPC -->
        <mxCell id="network-vpc" value="" style="sketch=0;outlineConnect=0;gradientColor=none;html=1;whiteSpace=wrap;fontSize=12;fontStyle=0;shape=mxgraph.aws4.group;grIcon=mxgraph.aws4.group_vpc;strokeColor=#248814;fillColor=none;verticalAlign=top;align=left;spacingLeft=30;fontColor=#248814;dashed=0;" vertex="1" parent="1">
          <mxGeometry x="120" y="380" width="540" height="200" as="geometry" />
        </mxCell>
        <mxCell id="network-vpc-label" value="Network Account VPC (10.10.0.0/16)" style="text;html=1;strokeColor=none;fillColor=none;align=left;verticalAlign=top;whiteSpace=wrap;rounded=0;fontSize=12;fontColor=#248814;fontStyle=1;" vertex="1" parent="1">
          <mxGeometry x="150" y="390" width="250" height="20" as="geometry" />
        </mxCell>

        <!-- Network Subnets -->
        <mxCell id="public-subnet-net" value="Public Subnet&#xa;10.10.1.0/24" style="rounded=1;whiteSpace=wrap;html=1;fillColor=#D5E8D4;strokeColor=#82B366;fontSize=10;" vertex="1" parent="1">
          <mxGeometry x="140" y="420" width="120" height="60" as="geometry" />
        </mxCell>

        <mxCell id="private-subnet-net" value="Private Subnet&#xa;10.10.11.0/24" style="rounded=1;whiteSpace=wrap;html=1;fillColor=#E1F5FE;strokeColor=#01579B;fontSize=10;" vertex="1" parent="1">
          <mxGeometry x="280" y="420" width="120" height="60" as="geometry" />
        </mxCell>

        <!-- Network Components -->
        <mxCell id="nat-gateway" value="" style="sketch=0;points=[[0,0,0],[0.25,0,0],[0.5,0,0],[0.75,0,0],[1,0,0],[0,1,0],[0.25,1,0],[0.5,1,0],[0.75,1,0],[1,1,0],[0,0.25,0],[0,0.5,0],[0,0.75,0],[1,0.25,0],[1,0.5,0],[1,0.75,0]];outlineConnect=0;fontColor=#232F3E;gradientColor=#4AB29A;gradientDirection=north;fillColor=#116D5B;strokeColor=#ffffff;dashed=0;verticalLabelPosition=bottom;verticalAlign=top;align=center;html=1;fontSize=12;fontStyle=0;aspect=fixed;shape=mxgraph.aws4.resourceIcon;resIcon=mxgraph.aws4.nat_gateway;" vertex="1" parent="1">
          <mxGeometry x="180" y="500" width="40" height="40" as="geometry" />
        </mxCell>

        <mxCell id="internet-gateway" value="" style="sketch=0;points=[[0,0,0],[0.25,0,0],[0.5,0,0],[0.75,0,0],[1,0,0],[0,1,0],[0.25,1,0],[0.5,1,0],[0.75,1,0],[1,1,0],[0,0.25,0],[0,0.5,0],[0,0.75,0],[1,0.25,0],[1,0.5,0],[1,0.75,0]];outlineConnect=0;fontColor=#232F3E;gradientColor=#4AB29A;gradientDirection=north;fillColor=#116D5B;strokeColor=#ffffff;dashed=0;verticalLabelPosition=bottom;verticalAlign=top;align=center;html=1;fontSize=12;fontStyle=0;aspect=fixed;shape=mxgraph.aws4.resourceIcon;resIcon=mxgraph.aws4.internet_gateway;" vertex="1" parent="1">
          <mxGeometry x="440" y="420" width="50" height="50" as="geometry" />
        </mxCell>

        <!-- Direct Connect -->
        <mxCell id="direct-connect" value="" style="sketch=0;points=[[0,0,0],[0.25,0,0],[0.5,0,0],[0.75,0,0],[1,0,0],[0,1,0],[0.25,1,0],[0.5,1,0],[0.75,1,0],[1,1,0],[0,0.25,0],[0,0.5,0],[0,0.75,0],[1,0.25,0],[1,0.5,0],[1,0.75,0]];outlineConnect=0;fontColor=#232F3E;gradientColor=#4AB29A;gradientDirection=north;fillColor=#116D5B;strokeColor=#ffffff;dashed=0;verticalLabelPosition=bottom;verticalAlign=top;align=center;html=1;fontSize=12;fontStyle=0;aspect=fixed;shape=mxgraph.aws4.resourceIcon;resIcon=mxgraph.aws4.direct_connect;" vertex="1" parent="1">
          <mxGeometry x="520" y="420" width="50" height="50" as="geometry" />
        </mxCell>

        <!-- ML Production VPC -->
        <mxCell id="ml-prod-vpc" value="" style="sketch=0;outlineConnect=0;gradientColor=none;html=1;whiteSpace=wrap;fontSize=12;fontStyle=0;shape=mxgraph.aws4.group;grIcon=mxgraph.aws4.group_vpc;strokeColor=#248814;fillColor=none;verticalAlign=top;align=left;spacingLeft=30;fontColor=#248814;dashed=0;" vertex="1" parent="1">
          <mxGeometry x="730" y="380" width="540" height="280" as="geometry" />
        </mxCell>
        <mxCell id="ml-prod-vpc-label" value="ML Production VPC (10.20.0.0/16)" style="text;html=1;strokeColor=none;fillColor=none;align=left;verticalAlign=top;whiteSpace=wrap;rounded=0;fontSize=12;fontColor=#248814;fontStyle=1;" vertex="1" parent="1">
          <mxGeometry x="760" y="390" width="250" height="20" as="geometry" />
        </mxCell>

        <!-- ML Subnets -->
        <mxCell id="private-subnet-ml-1" value="Private Subnet&#xa;10.20.11.0/24" style="rounded=1;whiteSpace=wrap;html=1;fillColor=#E1F5FE;strokeColor=#01579B;fontSize=10;" vertex="1" parent="1">
          <mxGeometry x="750" y="420" width="120" height="60" as="geometry" />
        </mxCell>

        <mxCell id="private-subnet-ml-2" value="Private Subnet&#xa;10.20.12.0/24" style="rounded=1;whiteSpace=wrap;html=1;fillColor=#E1F5FE;strokeColor=#01579B;fontSize=10;" vertex="1" parent="1">
          <mxGeometry x="890" y="420" width="120" height="60" as="geometry" />
        </mxCell>

        <mxCell id="private-subnet-ml-3" value="Private Subnet&#xa;10.20.13.0/24" style="rounded=1;whiteSpace=wrap;html=1;fillColor=#E1F5FE;strokeColor=#01579B;fontSize=10;" vertex="1" parent="1">
          <mxGeometry x="1030" y="420" width="120" height="60" as="geometry" />
        </mxCell>

        <!-- SageMaker Components -->
        <mxCell id="sagemaker-studio" value="" style="sketch=0;points=[[0,0,0],[0.25,0,0],[0.5,0,0],[0.75,0,0],[1,0,0],[0,1,0],[0.25,1,0],[0.5,1,0],[0.75,1,0],[1,1,0],[0,0.25,0],[0,0.5,0],[0,0.75,0],[1,0.25,0],[1,0.5,0],[1,0.75,0]];outlineConnect=0;fontColor=#232F3E;gradientColor=#F78E04;gradientDirection=north;fillColor=#D05C17;strokeColor=#ffffff;dashed=0;verticalLabelPosition=bottom;verticalAlign=top;align=center;html=1;fontSize=12;fontStyle=0;aspect=fixed;shape=mxgraph.aws4.resourceIcon;resIcon=mxgraph.aws4.sagemaker_studio_lab;" vertex="1" parent="1">
          <mxGeometry x="770" y="500" width="40" height="40" as="geometry" />
        </mxCell>
        <mxCell id="sagemaker-studio-label" value="SageMaker&#xa;Studio" style="text;html=1;strokeColor=none;fillColor=none;align=center;verticalAlign=middle;whiteSpace=wrap;rounded=0;fontSize=8;" vertex="1" parent="1">
          <mxGeometry x="750" y="545" width="80" height="25" as="geometry" />
        </mxCell>

        <mxCell id="sagemaker-endpoint" value="" style="sketch=0;points=[[0,0,0],[0.25,0,0],[0.5,0,0],[0.75,0,0],[1,0,0],[0,1,0],[0.25,1,0],[0.5,1,0],[0.75,1,0],[1,1,0],[0,0.25,0],[0,0.5,0],[0,0.75,0],[1,0.25,0],[1,0.5,0],[1,0.75,0]];outlineConnect=0;fontColor=#232F3E;gradientColor=#F78E04;gradientDirection=north;fillColor=#D05C17;strokeColor=#ffffff;dashed=0;verticalLabelPosition=bottom;verticalAlign=top;align=center;html=1;fontSize=12;fontStyle=0;aspect=fixed;shape=mxgraph.aws4.resourceIcon;resIcon=mxgraph.aws4.sagemaker_endpoints;" vertex="1" parent="1">
          <mxGeometry x="930" y="500" width="40" height="40" as="geometry" />
        </mxCell>
        <mxCell id="sagemaker-endpoint-label" value="Inference&#xa;Endpoints" style="text;html=1;strokeColor=none;fillColor=none;align=center;verticalAlign=middle;whiteSpace=wrap;rounded=0;fontSize=8;" vertex="1" parent="1">
          <mxGeometry x="910" y="545" width="80" height="25" as="geometry" />
        </mxCell>

        <mxCell id="bedrock" value="" style="sketch=0;points=[[0,0,0],[0.25,0,0],[0.5,0,0],[0.75,0,0],[1,0,0],[0,1,0],[0.25,1,0],[0.5,1,0],[0.75,1,0],[1,1,0],[0,0.25,0],[0,0.5,0],[0,0.75,0],[1,0.25,0],[1,0.5,0],[1,0.75,0]];outlineConnect=0;fontColor=#232F3E;gradientColor=#F78E04;gradientDirection=north;fillColor=#D05C17;strokeColor=#ffffff;dashed=0;verticalLabelPosition=bottom;verticalAlign=top;align=center;html=1;fontSize=12;fontStyle=0;aspect=fixed;shape=mxgraph.aws4.resourceIcon;resIcon=mxgraph.aws4.bedrock;" vertex="1" parent="1">
          <mxGeometry x="1070" y="500" width="40" height="40" as="geometry" />
        </mxCell>
        <mxCell id="bedrock-label" value="Bedrock&#xa;Agents" style="text;html=1;strokeColor=none;fillColor=none;align=center;verticalAlign=middle;whiteSpace=wrap;rounded=0;fontSize=8;" vertex="1" parent="1">
          <mxGeometry x="1050" y="545" width="80" height="25" as="geometry" />
        </mxCell>

        <!-- Data Production VPC -->
        <mxCell id="data-prod-vpc" value="" style="sketch=0;outlineConnect=0;gradientColor=none;html=1;whiteSpace=wrap;fontSize=12;fontStyle=0;shape=mxgraph.aws4.group;grIcon=mxgraph.aws4.group_vpc;strokeColor=#248814;fillColor=none;verticalAlign=top;align=left;spacingLeft=30;fontColor=#248814;dashed=0;" vertex="1" parent="1">
          <mxGeometry x="1340" y="380" width="540" height="280" as="geometry" />
        </mxCell>
        <mxCell id="data-prod-vpc-label" value="Data Production VPC (10.22.0.0/16)" style="text;html=1;strokeColor=none;fillColor=none;align=left;verticalAlign=top;whiteSpace=wrap;rounded=0;fontSize=12;fontColor=#248814;fontStyle=1;" vertex="1" parent="1">
          <mxGeometry x="1370" y="390" width="250" height="20" as="geometry" />
        </mxCell>

        <!-- Data Subnets -->
        <mxCell id="private-subnet-data-1" value="Private Subnet&#xa;10.22.11.0/24" style="rounded=1;whiteSpace=wrap;html=1;fillColor=#E1F5FE;strokeColor=#01579B;fontSize=10;" vertex="1" parent="1">
          <mxGeometry x="1360" y="420" width="120" height="60" as="geometry" />
        </mxCell>

        <mxCell id="private-subnet-data-2" value="Private Subnet&#xa;10.22.12.0/24" style="rounded=1;whiteSpace=wrap;html=1;fillColor=#E1F5FE;strokeColor=#01579B;fontSize=10;" vertex="1" parent="1">
          <mxGeometry x="1500" y="420" width="120" height="60" as="geometry" />
        </mxCell>

        <mxCell id="private-subnet-data-3" value="Private Subnet&#xa;10.22.13.0/24" style="rounded=1;whiteSpace=wrap;html=1;fillColor=#E1F5FE;strokeColor=#01579B;fontSize=10;" vertex="1" parent="1">
          <mxGeometry x="1640" y="420" width="120" height="60" as="geometry" />
        </mxCell>

        <!-- Data Services -->
        <mxCell id="s3-datalake" value="" style="sketch=0;points=[[0,0,0],[0.25,0,0],[0.5,0,0],[0.75,0,0],[1,0,0],[0,1,0],[0.25,1,0],[0.5,1,0],[0.75,1,0],[1,1,0],[0,0.25,0],[0,0.5,0],[0,0.75,0],[1,0.25,0],[1,0.5,0],[1,0.75,0]];outlineConnect=0;fontColor=#232F3E;gradientColor=#60A337;gradientDirection=north;fillColor=#277116;strokeColor=#ffffff;dashed=0;verticalLabelPosition=bottom;verticalAlign=top;align=center;html=1;fontSize=12;fontStyle=0;aspect=fixed;shape=mxgraph.aws4.resourceIcon;resIcon=mxgraph.aws4.s3;" vertex="1" parent="1">
          <mxGeometry x="1380" y="500" width="40" height="40" as="geometry" />
        </mxCell>
        <mxCell id="s3-label" value="S3 Data Lake&#xa;50M records/day" style="text;html=1;strokeColor=none;fillColor=none;align=center;verticalAlign=middle;whiteSpace=wrap;rounded=0;fontSize=8;" vertex="1" parent="1">
          <mxGeometry x="1360" y="545" width="80" height="25" as="geometry" />
        </mxCell>

        <mxCell id="kinesis" value="" style="sketch=0;points=[[0,0,0],[0.25,0,0],[0.5,0,0],[0.75,0,0],[1,0,0],[0,1,0],[0.25,1,0],[0.5,1,0],[0.75,1,0],[1,1,0],[0,0.25,0],[0,0.5,0],[0,0.75,0],[1,0.25,0],[1,0.5,0],[1,0.75,0]];outlineConnect=0;fontColor=#232F3E;gradientColor=#945DF2;gradientDirection=north;fillColor=#5A30B5;strokeColor=#ffffff;dashed=0;verticalLabelPosition=bottom;verticalAlign=top;align=center;html=1;fontSize=12;fontStyle=0;aspect=fixed;shape=mxgraph.aws4.resourceIcon;resIcon=mxgraph.aws4.kinesis_data_streams;" vertex="1" parent="1">
          <mxGeometry x="1540" y="500" width="40" height="40" as="geometry" />
        </mxCell>
        <mxCell id="kinesis-label" value="Kinesis&#xa;Streams" style="text;html=1;strokeColor=none;fillColor=none;align=center;verticalAlign=middle;whiteSpace=wrap;rounded=0;fontSize=8;" vertex="1" parent="1">
          <mxGeometry x="1520" y="545" width="80" height="25" as="geometry" />
        </mxCell>

        <mxCell id="glue" value="" style="sketch=0;points=[[0,0,0],[0.25,0,0],[0.5,0,0],[0.75,0,0],[1,0,0],[0,1,0],[0.25,1,0],[0.5,1,0],[0.75,1,0],[1,1,0],[0,0.25,0],[0,0.5,0],[0,0.75,0],[1,0.25,0],[1,0.5,0],[1,0.75,0]];outlineConnect=0;fontColor=#232F3E;gradientColor=#945DF2;gradientDirection=north;fillColor=#5A30B5;strokeColor=#ffffff;dashed=0;verticalLabelPosition=bottom;verticalAlign=top;align=center;html=1;fontSize=12;fontStyle=0;aspect=fixed;shape=mxgraph.aws4.resourceIcon;resIcon=mxgraph.aws4.glue;" vertex="1" parent="1">
          <mxGeometry x="1680" y="500" width="40" height="40" as="geometry" />
        </mxCell>
        <mxCell id="glue-label" value="Glue ETL&#xa;Feature Eng." style="text;html=1;strokeColor=none;fillColor=none;align=center;verticalAlign=middle;whiteSpace=wrap;rounded=0;fontSize=8;" vertex="1" parent="1">
          <mxGeometry x="1660" y="545" width="80" height="25" as="geometry" />
        </mxCell>

        <!-- Security Services Layer -->
        <mxCell id="security-layer" value="" style="rounded=1;whiteSpace=wrap;html=1;fillColor=#FFE6CC;strokeColor=#D79B00;verticalAlign=top;fontSize=14;fontStyle=1;" vertex="1" parent="1">
          <mxGeometry x="120" y="700" width="1760" height="150" as="geometry" />
        </mxCell>
        <mxCell id="security-layer-label" value="SECURITY &amp; GOVERNANCE LAYER" style="text;html=1;strokeColor=none;fillColor=none;align=center;verticalAlign=top;whiteSpace=wrap;rounded=0;fontSize=16;fontStyle=1;fontColor=#D79B00;" vertex="1" parent="1">
          <mxGeometry x="900" y="710" width="300" height="30" as="geometry" />
        </mxCell>

        <!-- Security Services -->
        <mxCell id="cloudtrail" value="" style="sketch=0;points=[[0,0,0],[0.25,0,0],[0.5,0,0],[0.75,0,0],[1,0,0],[0,1,0],[0.25,1,0],[0.5,1,0],[0.75,1,0],[1,1,0],[0,0.25,0],[0,0.5,0],[0,0.75,0],[1,0.25,0],[1,0.5,0],[1,0.75,0]];outlineConnect=0;fontColor=#232F3E;gradientColor=#F54749;gradientDirection=north;fillColor=#C7131F;strokeColor=#ffffff;dashed=0;verticalLabelPosition=bottom;verticalAlign=top;align=center;html=1;fontSize=12;fontStyle=0;aspect=fixed;shape=mxgraph.aws4.resourceIcon;resIcon=mxgraph.aws4.cloudtrail;" vertex="1" parent="1">
          <mxGeometry x="160" y="760" width="50" height="50" as="geometry" />
        </mxCell>
        <mxCell id="cloudtrail-label" value="CloudTrail" style="text;html=1;strokeColor=none;fillColor=none;align=center;verticalAlign=middle;whiteSpace=wrap;rounded=0;fontSize=10;" vertex="1" parent="1">
          <mxGeometry x="135" y="815" width="100" height="20" as="geometry" />
        </mxCell>

        <mxCell id="config" value="" style="sketch=0;points=[[0,0,0],[0.25,0,0],[0.5,0,0],[0.75,0,0],[1,0,0],[0,1,0],[0.25,1,0],[0.5,1,0],[0.75,1,0],[1,1,0],[0,0.25,0],[0,0.5,0],[0,0.75,0],[1,0.25,0],[1,0.5,0],[1,0.75,0]];outlineConnect=0;fontColor=#232F3E;gradientColor=#F54749;gradientDirection=north;fillColor=#C7131F;strokeColor=#ffffff;dashed=0;verticalLabelPosition=bottom;verticalAlign=top;align=center;html=1;fontSize=12;fontStyle=0;aspect=fixed;shape=mxgraph.aws4.resourceIcon;resIcon=mxgraph.aws4.config;" vertex="1" parent="1">
          <mxGeometry x="280" y="760" width="50" height="50" as="geometry" />
        </mxCell>
        <mxCell id="config-label" value="Config" style="text;html=1;strokeColor=none;fillColor=none;align=center;verticalAlign=middle;whiteSpace=wrap;rounded=0;fontSize=10;" vertex="1" parent="1">
          <mxGeometry x="255" y="815" width="100" height="20" as="geometry" />
        </mxCell>

        <mxCell id="guardduty" value="" style="sketch=0;points=[[0,0,0],[0.25,0,0],[0.5,0,0],[0.75,0,0],[1,0,0],[0,1,0],[0.25,1,0],[0.5,1,0],[0.75,1,0],[1,1,0],[0,0.25,0],[0,0.5,0],[0,0.75,0],[1,0.25,0],[1,0.5,0],[1,0.75,0]];outlineConnect=0;fontColor=#232F3E;gradientColor=#F54749;gradientDirection=north;fillColor=#C7131F;strokeColor=#ffffff;dashed=0;verticalLabelPosition=bottom;verticalAlign=top;align=center;html=1;fontSize=12;fontStyle=0;aspect=fixed;shape=mxgraph.aws4.resourceIcon;resIcon=mxgraph.aws4.guardduty;" vertex="1" parent="1">
          <mxGeometry x="400" y="760" width="50" height="50" as="geometry" />
        </mxCell>
        <mxCell id="guardduty-label" value="GuardDuty" style="text;html=1;strokeColor=none;fillColor=none;align=center;verticalAlign=middle;whiteSpace=wrap;rounded=0;fontSize=10;" vertex="1" parent="1">
          <mxGeometry x="375" y="815" width="100" height="20" as="geometry" />
        </mxCell>

        <mxCell id="security-hub" value="" style="sketch=0;points=[[0,0,0],[0.25,0,0],[0.5,0,0],[0.75,0,0],[1,0,0],[0,1,0],[0.25,1,0],[0.5,1,0],[0.75,1,0],[1,1,0],[0,0.25,0],[0,0.5,0],[0,0.75,0],[1,0.25,0],[1,0.5,0],[1,0.75,0]];outlineConnect=0;fontColor=#232F3E;gradientColor=#F54749;gradientDirection=north;fillColor=#C7131F;strokeColor=#ffffff;dashed=0;verticalLabelPosition=bottom;verticalAlign=top;align=center;html=1;fontSize=12;fontStyle=0;aspect=fixed;shape=mxgraph.aws4.resourceIcon;resIcon=mxgraph.aws4.security_hub;" vertex="1" parent="1">
          <mxGeometry x="520" y="760" width="50" height="50" as="geometry" />
        </mxCell>
        <mxCell id="security-hub-label" value="Security Hub" style="text;html=1;strokeColor=none;fillColor=none;align=center;verticalAlign=middle;whiteSpace=wrap;rounded=0;fontSize=10;" vertex="1" parent="1">
          <mxGeometry x="495" y="815" width="100" height="20" as="geometry" />
        </mxCell>

        <mxCell id="iam-center" value="" style="sketch=0;points=[[0,0,0],[0.25,0,0],[0.5,0,0],[0.75,0,0],[1,0,0],[0,1,0],[0.25,1,0],[0.5,1,0],[0.75,1,0],[1,1,0],[0,0.25,0],[0,0.5,0],[0,0.75,0],[1,0.25,0],[1,0.5,0],[1,0.75,0]];outlineConnect=0;fontColor=#232F3E;gradientColor=#F54749;gradientDirection=north;fillColor=#C7131F;strokeColor=#ffffff;dashed=0;verticalLabelPosition=bottom;verticalAlign=top;align=center;html=1;fontSize=12;fontStyle=0;aspect=fixed;shape=mxgraph.aws4.resourceIcon;resIcon=mxgraph.aws4.identity_center;" vertex="1" parent="1">
          <mxGeometry x="640" y="760" width="50" height="50" as="geometry" />
        </mxCell>
        <mxCell id="iam-center-label" value="IAM Identity&#xa;Center" style="text;html=1;strokeColor=none;fillColor=none;align=center;verticalAlign=middle;whiteSpace=wrap;rounded=0;fontSize=10;" vertex="1" parent="1">
          <mxGeometry x="615" y="815" width="100" height="20" as="geometry" />
        </mxCell>

        <mxCell id="kms" value="" style="sketch=0;points=[[0,0,0],[0.25,0,0],[0.5,0,0],[0.75,0,0],[1,0,0],[0,1,0],[0.25,1,0],[0.5,1,0],[0.75,1,0],[1,1,0],[0,0.25,0],[0,0.5,0],[0,0.75,0],[1,0.25,0],[1,0.5,0],[1,0.75,0]];outlineConnect=0;fontColor=#232F3E;gradientColor=#F54749;gradientDirection=north;fillColor=#C7131F;strokeColor=#ffffff;dashed=0;verticalLabelPosition=bottom;verticalAlign=top;align=center;html=1;fontSize=12;fontStyle=0;aspect=fixed;shape=mxgraph.aws4.resourceIcon;resIcon=mxgraph.aws4.key_management_service;" vertex="1" parent="1">
          <mxGeometry x="760" y="760" width="50" height="50" as="geometry" />
        </mxCell>
        <mxCell id="kms-label" value="KMS" style="text;html=1;strokeColor=none;fillColor=none;align=center;verticalAlign=middle;whiteSpace=wrap;rounded=0;fontSize=10;" vertex="1" parent="1">
          <mxGeometry x="735" y="815" width="100" height="20" as="geometry" />
        </mxCell>

        <!-- Monitoring Services -->
        <mxCell id="cloudwatch" value="" style="sketch=0;points=[[0,0,0],[0.25,0,0],[0.5,0,0],[0.75,0,0],[1,0,0],[0,1,0],[0.25,1,0],[0.5,1,0],[0.75,1,0],[1,1,0],[0,0.25,0],[0,0.5,0],[0,0.75,0],[1,0.25,0],[1,0.5,0],[1,0.75,0]];outlineConnect=0;fontColor=#232F3E;gradientColor=#F54749;gradientDirection=north;fillColor=#C7131F;strokeColor=#ffffff;dashed=0;verticalLabelPosition=bottom;verticalAlign=top;align=center;html=1;fontSize=12;fontStyle=0;aspect=fixed;shape=mxgraph.aws4.resourceIcon;resIcon=mxgraph.aws4.cloudwatch;" vertex="1" parent="1">
          <mxGeometry x="880" y="760" width="50" height="50" as="geometry" />
        </mxCell>
        <mxCell id="cloudwatch-label" value="CloudWatch" style="text;html=1;strokeColor=none;fillColor=none;align=center;verticalAlign=middle;whiteSpace=wrap;rounded=0;fontSize=10;" vertex="1" parent="1">
          <mxGeometry x="855" y="815" width="100" height="20" as="geometry" />
        </mxCell>

        <mxCell id="xray" value="" style="sketch=0;points=[[0,0,0],[0.25,0,0],[0.5,0,0],[0.75,0,0],[1,0,0],[0,1,0],[0.25,1,0],[0.5,1,0],[0.75,1,0],[1,1,0],[0,0.25,0],[0,0.5,0],[0,0.75,0],[1,0.25,0],[1,0.5,0],[1,0.75,0]];outlineConnect=0;fontColor=#232F3E;gradientColor=#F54749;gradientDirection=north;fillColor=#C7131F;strokeColor=#ffffff;dashed=0;verticalLabelPosition=bottom;verticalAlign=top;align=center;html=1;fontSize=12;fontStyle=0;aspect=fixed;shape=mxgraph.aws4.resourceIcon;resIcon=mxgraph.aws4.x_ray;" vertex="1" parent="1">
          <mxGeometry x="1000" y="760" width="50" height="50" as="geometry" />
        </mxCell>
        <mxCell id="xray-label" value="X-Ray" style="text;html=1;strokeColor=none;fillColor=none;align=center;verticalAlign=middle;whiteSpace=wrap;rounded=0;fontSize=10;" vertex="1" parent="1">
          <mxGeometry x="975" y="815" width="100" height="20" as="geometry" />
        </mxCell>

        <!-- Application Services -->
        <mxCell id="api-gateway" value="" style="sketch=0;points=[[0,0,0],[0.25,0,0],[0.5,0,0],[0.75,0,0],[1,0,0],[0,1,0],[0.25,1,0],[0.5,1,0],[0.75,1,0],[1,1,0],[0,0.25,0],[0,0.5,0],[0,0.75,0],[1,0.25,0],[1,0.5,0],[1,0.75,0]];outlineConnect=0;fontColor=#232F3E;gradientColor=#FF4F8B;gradientDirection=north;fillColor=#BC1356;strokeColor=#ffffff;dashed=0;verticalLabelPosition=bottom;verticalAlign=top;align=center;html=1;fontSize=12;fontStyle=0;aspect=fixed;shape=mxgraph.aws4.resourceIcon;resIcon=mxgraph.aws4.api_gateway;" vertex="1" parent="1">
          <mxGeometry x="1120" y="760" width="50" height="50" as="geometry" />
        </mxCell>
        <mxCell id="api-gateway-label" value="API Gateway" style="text;html=1;strokeColor=none;fillColor=none;align=center;verticalAlign=middle;whiteSpace=wrap;rounded=0;fontSize=10;" vertex="1" parent="1">
          <mxGeometry x="1095" y="815" width="100" height="20" as="geometry" />
        </mxCell>

        <mxCell id="lambda" value="" style="sketch=0;points=[[0,0,0],[0.25,0,0],[0.5,0,0],[0.75,0,0],[1,0,0],[0,1,0],[0.25,1,0],[0.5,1,0],[0.75,1,0],[1,1,0],[0,0.25,0],[0,0.5,0],[0,0.75,0],[1,0.25,0],[1,0.5,0],[1,0.75,0]];outlineConnect=0;fontColor=#232F3E;gradientColor=#F78E04;gradientDirection=north;fillColor=#D05C17;strokeColor=#ffffff;dashed=0;verticalLabelPosition=bottom;verticalAlign=top;align=center;html=1;fontSize=12;fontStyle=0;aspect=fixed;shape=mxgraph.aws4.resourceIcon;resIcon=mxgraph.aws4.lambda;" vertex="1" parent="1">
          <mxGeometry x="1240" y="760" width="50" height="50" as="geometry" />
        </mxCell>
        <mxCell id="lambda-label" value="Lambda" style="text;html=1;strokeColor=none;fillColor=none;align=center;verticalAlign=middle;whiteSpace=wrap;rounded=0;fontSize=10;" vertex="1" parent="1">
          <mxGeometry x="1215" y="815" width="100" height="20" as="geometry" />
        </mxCell>

        <mxCell id="step-functions" value="" style="sketch=0;points=[[0,0,0],[0.25,0,0],[0.5,0,0],[0.75,0,0],[1,0,0],[0,1,0],[0.25,1,0],[0.5,1,0],[0.75,1,0],[1,1,0],[0,0.25,0],[0,0.5,0],[0,0.75,0],[1,0.25,0],[1,0.5,0],[1,0.75,0]];outlineConnect=0;fontColor=#232F3E;gradientColor=#FF4F8B;gradientDirection=north;fillColor=#BC1356;strokeColor=#ffffff;dashed=0;verticalLabelPosition=bottom;verticalAlign=top;align=center;html=1;fontSize=12;fontStyle=0;aspect=fixed;shape=mxgraph.aws4.resourceIcon;resIcon=mxgraph.aws4.step_functions;" vertex="1" parent="1">
          <mxGeometry x="1360" y="760" width="50" height="50" as="geometry" />
        </mxCell>
        <mxCell id="step-functions-label" value="Step Functions" style="text;html=1;strokeColor=none;fillColor=none;align=center;verticalAlign=middle;whiteSpace=wrap;rounded=0;fontSize=10;" vertex="1" parent="1">
          <mxGeometry x="1335" y="815" width="100" height="20" as="geometry" />
        </mxCell>

        <!-- CI/CD Services -->
        <mxCell id="codepipeline" value="" style="sketch=0;points=[[0,0,0],[0.25,0,0],[0.5,0,0],[0.75,0,0],[1,0,0],[0,1,0],[0.25,1,0],[0.5,1,0],[0.75,1,0],[1,1,0],[0,0.25,0],[0,0.5,0],[0,0.75,0],[1,0.25,0],[1,0.5,0],[1,0.75,0]];outlineConnect=0;fontColor=#232F3E;gradientColor=#4AB29A;gradientDirection=north;fillColor=#116D5B;strokeColor=#ffffff;dashed=0;verticalLabelPosition=bottom;verticalAlign=top;align=center;html=1;fontSize=12;fontStyle=0;aspect=fixed;shape=mxgraph.aws4.resourceIcon;resIcon=mxgraph.aws4.codepipeline;" vertex="1" parent="1">
          <mxGeometry x="1480" y="760" width="50" height="50" as="geometry" />
        </mxCell>
        <mxCell id="codepipeline-label" value="CodePipeline" style="text;html=1;strokeColor=none;fillColor=none;align=center;verticalAlign=middle;whiteSpace=wrap;rounded=0;fontSize=10;" vertex="1" parent="1">
          <mxGeometry x="1455" y="815" width="100" height="20" as="geometry" />
        </mxCell>

        <mxCell id="codebuild" value="" style="sketch=0;points=[[0,0,0],[0.25,0,0],[0.5,0,0],[0.75,0,0],[1,0,0],[0,1,0],[0.25,1,0],[0.5,1,0],[0.75,1,0],[1,1,0],[0,0.25,0],[0,0.5,0],[0,0.75,0],[1,0.25,0],[1,0.5,0],[1,0.75,0]];outlineConnect=0;fontColor=#232F3E;gradientColor=#4AB29A;gradientDirection=north;fillColor=#116D5B;strokeColor=#ffffff;dashed=0;verticalLabelPosition=bottom;verticalAlign=top;align=center;html=1;fontSize=12;fontStyle=0;aspect=fixed;shape=mxgraph.aws4.resourceIcon;resIcon=mxgraph.aws4.codebuild;" vertex="1" parent="1">
          <mxGeometry x="1600" y="760" width="50" height="50" as="geometry" />
        </mxCell>
        <mxCell id="codebuild-label" value="CodeBuild" style="text;html=1;strokeColor=none;fillColor=none;align=center;verticalAlign=middle;whiteSpace=wrap;rounded=0;fontSize=10;" vertex="1" parent="1">
          <mxGeometry x="1575" y="815" width="100" height="20" as="geometry" />
        </mxCell>

        <mxCell id="codecommit" value="" style="sketch=0;points=[[0,0,0],[0.25,0,0],[0.5,0,0],[0.75,0,0],[1,0,0],[0,1,0],[0.25,1,0],[0.5,1,0],[0.75,1,0],[1,1,0],[0,0.25,0],[0,0.5,0],[0,0.75,0],[1,0.25,0],[1,0.5,0],[1,0.75,0]];outlineConnect=0;fontColor=#232F3E;gradientColor=#4AB29A;gradientDirection=north;fillColor=#116D5B;strokeColor=#ffffff;dashed=0;verticalLabelPosition=bottom;verticalAlign=top;align=center;html=1;fontSize=12;fontStyle=0;aspect=fixed;shape=mxgraph.aws4.resourceIcon;resIcon=mxgraph.aws4.codecommit;" vertex="1" parent="1">
          <mxGeometry x="1720" y="760" width="50" height="50" as="geometry" />
        </mxCell>
        <mxCell id="codecommit-label" value="CodeCommit" style="text;html=1;strokeColor=none;fillColor=none;align=center;verticalAlign=middle;whiteSpace=wrap;rounded=0;fontSize=10;" vertex="1" parent="1">
          <mxGeometry x="1695" y="815" width="100" height="20" as="geometry" />
        </mxCell>

        <!-- Data Management Layer -->
        <mxCell id="data-layer" value="" style="rounded=1;whiteSpace=wrap;html=1;fillColor=#E8F5E8;strokeColor=#388E3C;verticalAlign=top;fontSize=14;fontStyle=1;" vertex="1" parent="1">
          <mxGeometry x="120" y="880" width="1760" height="180" as="geometry" />
        </mxCell>
        <mxCell id="data-layer-label" value="DATA MANAGEMENT &amp; ANALYTICS LAYER" style="text;html=1;strokeColor=none;fillColor=none;align=center;verticalAlign=top;whiteSpace=wrap;rounded=0;fontSize=16;fontStyle=1;fontColor=#388E3C;" vertex="1" parent="1">
          <mxGeometry x="850" y="890" width="400" height="30" as="geometry" />
        </mxCell>

        <!-- Data Flow Diagram -->
        <mxCell id="data-flow" value="External Data Sources&#xa;(Vercel Platform)" style="rounded=1;whiteSpace=wrap;html=1;fillColor=#FFECB3;strokeColor=#FFA000;fontSize=12;" vertex="1" parent="1">
          <mxGeometry x="160" y="930" width="150" height="60" as="geometry" />
        </mxCell>

        <mxCell id="kinesis-ingestion" value="Kinesis Data Streams&#xa;(Real-time Ingestion)" style="rounded=1;whiteSpace=wrap;html=1;fillColor=#E1F5FE;strokeColor=#0277BD;fontSize=12;" vertex="1" parent="1">
          <mxGeometry x="350" y="930" width="150" height="60" as="geometry" />
        </mxCell>

        <mxCell id="s3-storage" value="S3 Data Lake&#xa;(Raw/Processed/Curated)" style="rounded=1;whiteSpace=wrap;html=1;fillColor=#C8E6C9;strokeColor=#4CAF50;fontSize=12;" vertex="1" parent="1">
          <mxGeometry x="540" y="930" width="150" height="60" as="geometry" />
        </mxCell>

        <mxCell id="glue-processing" value="Glue ETL&#xa;(Feature Engineering)" style="rounded=1;whiteSpace=wrap;html=1;fillColor=#F3E5F5;strokeColor=#9C27B0;fontSize=12;" vertex="1" parent="1">
          <mxGeometry x="730" y="930" width="150" height="60" as="geometry" />
        </mxCell>

        <mxCell id="ml-training" value="SageMaker Training&#xa;(Model Development)" style="rounded=1;whiteSpace=wrap;html=1;fillColor=#FFCDD2;strokeColor=#F44336;fontSize=12;" vertex="1" parent="1">
          <mxGeometry x="920" y="930" width="150" height="60" as="geometry" />
        </mxCell>

        <mxCell id="ml-inference" value="SageMaker Endpoints&#xa;(Real-time Inference)" style="rounded=1;whiteSpace=wrap;html=1;fillColor=#FFCDD2;strokeColor=#F44336;fontSize=12;" vertex="1" parent="1">
          <mxGeometry x="1110" y="930" width="150" height="60" as="geometry" />
        </mxCell>

        <mxCell id="bedrock-agents" value="Bedrock Agents&#xa;(Autonomous Operations)" style="rounded=1;whiteSpace=wrap;html=1;fillColor=#FCE4EC;strokeColor=#E91E63;fontSize=12;" vertex="1" parent="1">
          <mxGeometry x="1300" y="930" width="150" height="60" as="geometry" />
        </mxCell>

        <mxCell id="api-consumption" value="API Gateway&#xa;(Client Access)" style="rounded=1;whiteSpace=wrap;html=1;fillColor=#E8EAF6;strokeColor=#3F51B5;fontSize=12;" vertex="1" parent="1">
          <mxGeometry x="1490" y="930" width="150" height="60" as="geometry" />
        </mxCell>

        <mxCell id="external-integration" value="External Systems&#xa;(SSMAS Platform)" style="rounded=1;whiteSpace=wrap;html=1;fillColor=#FFECB3;strokeColor=#FFA000;fontSize=12;" vertex="1" parent="1">
          <mxGeometry x="1680" y="930" width="150" height="60" as="geometry" />
        </mxCell>

        <!-- Data Flow Arrows -->
        <mxCell id="flow1" value="" style="endArrow=classic;html=1;rounded=0;exitX=1;exitY=0.5;exitDx=0;exitDy=0;entryX=0;entryY=0.5;entryDx=0;entryDy=0;strokeColor=#FF9800;strokeWidth=3;" edge="1" parent="1" source="data-flow" target="kinesis-ingestion">
          <mxGeometry width="50" height="50" relative="1" as="geometry">
            <mxPoint x="310" y="960" as="sourcePoint" />
            <mxPoint x="350" y="960" as="targetPoint" />
          </mxGeometry>
        </mxCell>

        <mxCell id="flow2" value="" style="endArrow=classic;html=1;rounded=0;exitX=1;exitY=0.5;exitDx=0;exitDy=0;entryX=0;entryY=0.5;entryDx=0;entryDy=0;strokeColor=#2196F3;strokeWidth=3;" edge="1" parent="1" source="kinesis-ingestion" target="s3-storage">
          <mxGeometry width="50" height="50" relative="1" as="geometry">
            <mxPoint x="500" y="960" as="sourcePoint" />
            <mxPoint x="540" y="960" as="targetPoint" />
          </mxGeometry>
        </mxCell>

        <mxCell id="flow3" value="" style="endArrow=classic;html=1;rounded=0;exitX=1;exitY=0.5;exitDx=0;exitDy=0;entryX=0;entryY=0.5;entryDx=0;entryDy=0;strokeColor=#4CAF50;strokeWidth=3;" edge="1" parent="1" source="s3-storage" target="glue-processing">
          <mxGeometry width="50" height="50" relative="1" as="geometry">
            <mxPoint x="690" y="960" as="sourcePoint" />
            <mxPoint x="730" y="960" as="targetPoint" />
          </mxGeometry>
        </mxCell>

        <mxCell id="flow4" value="" style="endArrow=classic;html=1;rounded=0;exitX=1;exitY=0.5;exitDx=0;exitDy=0;entryX=0;entryY=0.5;entryDx=0;entryDy=0;strokeColor=#9C27B0;strokeWidth=3;" edge="1" parent="1" source="glue-processing" target="ml-training">
          <mxGeometry width="50" height="50" relative="1" as="geometry">
            <mxPoint x="880" y="960" as="sourcePoint" />
            <mxPoint x="920" y="960" as="targetPoint" />
          </mxGeometry>
        </mxCell>

        <mxCell id="flow5" value="" style="endArrow=classic;html=1;rounded=0;exitX=1;exitY=0.5;exitDx=0;exitDy=0;entryX=0;entryY=0.5;entryDx=0;entryDy=0;strokeColor=#F44336;strokeWidth=3;" edge="1" parent="1" source="ml-training" target="ml-inference">
          <mxGeometry width="50" height="50" relative="1" as="geometry">
            <mxPoint x="1070" y="960" as="sourcePoint" />
            <mxPoint x="1110" y="960" as="targetPoint" />
          </mxGeometry>
        </mxCell>

        <mxCell id="flow6" value="" style="endArrow=classic;html=1;rounded=0;exitX=1;exitY=0.5;exitDx=0;exitDy=0;entryX=0;entryY=0.5;entryDx=0;entryDy=0;strokeColor=#E91E63;strokeWidth=3;" edge="1" parent="1" source="ml-inference" target="bedrock-agents">
          <mxGeometry width="50" height="50" relative="1" as="geometry">
            <mxPoint x="1260" y="960" as="sourcePoint" />
            <mxPoint x="1300" y="960" as="targetPoint" />
          </mxGeometry>
        </mxCell>

        <mxCell id="flow7" value="" style="endArrow=classic;html=1;rounded=0;exitX=1;exitY=0.5;exitDx=0;exitDy=0;entryX=0;entryY=0.5;entryDx=0;entryDy=0;strokeColor=#3F51B5;strokeWidth=3;" edge="1" parent="1" source="bedrock-agents" target="api-consumption">
          <mxGeometry width="50" height="50" relative="1" as="geometry">
            <mxPoint x="1450" y="960" as="sourcePoint" />
            <mxPoint x="1490" y="960" as="targetPoint" />
          </mxGeometry>
        </mxCell>

        <mxCell id="flow8" value="" style="endArrow=classic;html=1;rounded=0;exitX=1;exitY=0.5;exitDx=0;exitDy=0;entryX=0;entryY=0.5;entryDx=0;entryDy=0;strokeColor=#FF9800;strokeWidth=3;" edge="1" parent="1" source="api-consumption" target="external-integration">
          <mxGeometry width="50" height="50" relative="1" as="geometry">
            <mxPoint x="1640" y="960" as="sourcePoint" />
            <mxPoint x="1680" y="960" as="targetPoint" />
          </mxGeometry>
        </mxCell>

        <!-- Network Connections -->
        <mxCell id="tgw-connection1" value="" style="endArrow=classic;html=1;rounded=0;exitX=0.5;exitY=1;exitDx=0;exitDy=0;entryX=0.5;entryY=0;entryDx=0;entryDy=0;strokeColor=#4CAF50;strokeWidth=2;dashed=1;" edge="1" parent="1" source="transit-gateway" target="network-vpc">
          <mxGeometry width="50" height="50" relative="1" as="geometry">
            <mxPoint x="1000" y="330" as="sourcePoint" />
            <mxPoint x="390" y="380" as="targetPoint" />
          </mxGeometry>
        </mxCell>

        <mxCell id="tgw-connection2" value="" style="endArrow=classic;html=1;rounded=0;exitX=0.5;exitY=1;exitDx=0;exitDy=0;entryX=0.5;entryY=0;entryDx=0;entryDy=0;strokeColor=#4CAF50;strokeWidth=2;dashed=1;" edge="1" parent="1" source="transit-gateway" target="ml-prod-vpc">
          <mxGeometry width="50" height="50" relative="1" as="geometry">
            <mxPoint x="1000" y="330" as="sourcePoint" />
            <mxPoint x="1000" y="380" as="targetPoint" />
          </mxGeometry>
        </mxCell>

        <mxCell id="tgw-connection3" value="" style="endArrow=classic;html=1;rounded=0;exitX=0.5;exitY=1;exitDx=0;exitDy=0;entryX=0.5;entryY=0;entryDx=0;entryDy=0;strokeColor=#4CAF50;strokeWidth=2;dashed=1;" edge="1" parent="1" source="transit-gateway" target="data-prod-vpc">
          <mxGeometry width="50" height="50" relative="1" as="geometry">
            <mxPoint x="1000" y="330" as="sourcePoint" />
            <mxPoint x="1610" y="380" as="targetPoint" />
          </mxGeometry>
        </mxCell>

        <!-- Technical Specifications -->
        <mxCell id="tech-specs" value="Technical Specifications:&#xa;• Region: eu-west-1 (Dublin)&#xa;• Backup Region: eu-central-1 (Frankfurt)&#xa;• Encryption: KMS with customer-managed keys&#xa;• Networking: Transit Gateway with 3 AZs&#xa;• Data Volume: 50M+ records/day&#xa;• SLA: 99.9% availability for production&#xa;• Auto Scaling: Enabled for all compute resources" style="rounded=1;whiteSpace=wrap;html=1;fillColor=#F5F5F5;strokeColor=#BDBDBD;fontSize=10;align=left;verticalAlign=top;" vertex="1" parent="1">
          <mxGeometry x="1750" y="50" width="200" height="150" as="geometry" />
        </mxCell>

      </root>
    </mxGraphModel>
  </diagram>
</mxfile>